<svg width="317" height="77" viewBox="0 0 317 77" fill="none" xmlns="http://www.w3.org/2000/svg">
<path fill-rule="evenodd" clip-rule="evenodd" d="M97.5704 39.1139V19.6717C97.5704 15.4042 96.452 12.1255 94.1976 9.85934C91.9432 7.59314 87.7463 6.46887 81.6305 6.46887H61.5172C55.4426 6.46887 51.2222 7.5696 48.8559 9.74751C46.4897 11.9254 45.3301 15.2453 45.3301 19.6717V39.1139C45.3301 43.5345 46.5132 46.8367 48.8559 49.0381C51.2222 51.216 55.4426 52.3168 61.5172 52.3168H81.6305C87.7698 52.3168 91.9432 51.1925 94.1976 48.9263C96.452 46.6601 97.5704 43.3991 97.5704 39.1139ZM83.8202 34.6875C83.7025 37.1597 83.1668 38.9786 82.1661 40.144C81.1596 41.3154 78.864 41.8746 75.2439 41.8746H67.5447C64.1955 41.8746 61.941 41.2448 60.8227 39.991C59.7043 38.7313 59.1274 36.936 59.1274 34.6227V24.1806C59.1274 21.8673 59.6866 20.072 60.8227 18.8182C61.941 17.5585 64.1955 16.9287 67.5447 16.9287H75.2439C78.864 16.9287 81.1831 17.5173 82.2309 18.6593C83.2786 19.8247 83.7966 21.6671 83.7966 24.1806V34.6875H83.8202Z" fill="white"/>
<path fill-rule="evenodd" clip-rule="evenodd" d="M152.577 19.6717C152.577 15.4042 151.459 12.1255 149.204 9.85934C146.95 7.59314 142.753 6.46887 136.637 6.46887H116.524C110.449 6.46887 106.229 7.5696 103.863 9.74751C101.497 11.9254 100.337 15.2453 100.337 19.6717V52.3168H114.181V24.1806C114.181 21.8673 114.735 20.072 115.877 18.8182C116.989 17.5585 119.249 16.9287 122.593 16.9287H130.298C133.912 16.9287 136.237 17.5173 137.285 18.6593C138.333 19.8247 138.851 21.6671 138.851 24.1806V52.3168H152.601V19.6717H152.577Z" fill="white"/>
<path fill-rule="evenodd" clip-rule="evenodd" d="M193.769 6.49255L186.782 34.6229C186.04 37.048 185.193 38.755 184.233 39.7675C183.274 40.774 182.361 41.3155 181.532 41.4274C180.684 41.3155 179.772 40.774 178.789 39.7675C177.782 38.755 176.934 37.048 176.199 34.6229L169.212 6.49255H155.367C160.771 27.4593 163.785 38.4843 164.408 39.5202C165.144 41.9454 166.887 44.6825 169.677 47.7374C172.449 50.7865 175.104 52.3169 177.629 52.3169H185.416C188.407 52.3169 191.179 50.7865 193.698 47.7374C196.247 44.6825 197.895 41.8983 198.702 39.3613C199.125 38.4195 202.116 27.4593 207.655 6.49255H193.769Z" fill="white"/>
<path fill-rule="evenodd" clip-rule="evenodd" d="M228.039 34.4638H224.107C224.154 36.8889 224.755 38.7313 225.873 39.991C226.986 41.2448 229.24 41.8746 232.589 41.8746H252.638V52.3168H226.544C220.469 52.3168 216.249 51.216 213.883 49.0381C211.517 46.8602 210.357 43.5345 210.357 39.1139V19.6717C210.357 15.2453 211.54 11.949 213.883 9.74751C216.249 7.5696 220.469 6.46887 226.544 6.46887H252.638V16.9111H232.613C229.264 16.9111 227.009 17.535 225.891 18.7947C224.778 20.0543 224.178 21.8025 224.131 24.004H252.661V34.4462H228.057L228.039 34.4638Z" fill="white"/>
<mask id="mask0_542_9" style="mask-type:luminance" maskUnits="userSpaceOnUse" x="0" y="6" width="43" height="49">
<path d="M0 6.12756H42.2573V54.3476H0V6.12756Z" fill="white"/>
</mask>
<g mask="url(#mask0_542_9)">
<path fill-rule="evenodd" clip-rule="evenodd" d="M40.9093 53.4352H16.193C10.1243 53.4352 5.90387 52.3403 3.5376 50.1624C1.18899 47.961 0.00585938 44.6588 0.00585938 40.2382V20.7901C0.00585938 16.3695 1.18899 13.0673 3.5376 10.8659C5.90387 8.68798 10.1243 7.59314 16.193 7.59314H40.9093V18.412C39.7674 18.1413 31.6856 18.0059 29.9492 18.0059H22.2441C18.8948 18.0059 16.6404 18.6357 15.522 19.8954C14.4095 21.1491 13.8267 22.9503 13.8267 25.2577V35.6999C13.8267 38.0132 14.3859 39.8085 15.522 41.0682C16.6404 42.3219 18.8948 42.9518 22.2441 42.9518H40.9093V53.4352Z" fill="white"/>
</g>
<mask id="mask1_542_9" style="mask-type:luminance" maskUnits="userSpaceOnUse" x="256" y="0" width="31" height="61">
<path d="M256.234 0H286.371V60.3751H256.234V0Z" fill="white"/>
</mask>
<g mask="url(#mask1_542_9)">
<path fill-rule="evenodd" clip-rule="evenodd" d="M281.686 38.1957C286.771 33.6574 286.771 26.2937 281.686 21.7378L257.37 -0.00012207V14.8862L267.753 24.363C272.845 28.8954 272.845 31.0086 267.753 35.541L257.37 45.0178V59.9041L281.662 38.1721L281.686 38.1957Z" fill="#31D9A1"/>
</g>
<mask id="mask2_542_9" style="mask-type:luminance" maskUnits="userSpaceOnUse" x="287" y="0" width="30" height="61">
<path d="M287.878 0H316.444V60.3751H287.878V0Z" fill="white"/>
</mask>
<g mask="url(#mask2_542_9)">
<path fill-rule="evenodd" clip-rule="evenodd" d="M292.134 38.1957C287.042 33.6574 287.042 26.2937 292.134 21.7378L316.42 -0.00012207V14.8862L306.06 24.363C300.975 28.8954 300.975 31.0086 306.06 35.541L316.42 45.0178V59.9041L292.134 38.1721V38.1957Z" fill="#31D9A1"/>
</g>
<path d="M80.3178 76.8211H77.0215V66.6085H80.4237C81.4244 66.6085 82.2779 66.8145 82.996 67.2266C83.7141 67.6268 84.2616 68.2096 84.6442 68.9748C85.0268 69.7341 85.221 70.6406 85.221 71.7001C85.221 72.7655 85.0268 73.6779 84.6383 74.4431C84.2557 75.2083 83.6965 75.7911 82.9666 76.2031C82.2367 76.6151 81.3538 76.8211 80.3178 76.8211ZM78.5578 75.4732H80.2354C81.0124 75.4732 81.654 75.326 82.1719 75.0317C82.684 74.7374 83.0666 74.3136 83.3256 73.7544C83.5788 73.1893 83.7082 72.5065 83.7082 71.7001C83.7082 70.8996 83.5788 70.2168 83.3256 69.6635C83.0725 69.1043 82.6958 68.6805 82.1955 68.3921C81.6952 68.1036 81.0712 67.9565 80.3295 67.9565H78.5578V75.4732ZM94.3506 76.8211H92.7201L96.3872 66.6085H98.1648L101.832 76.8211H100.196L97.3172 68.4627H97.2348L94.3506 76.8211ZM94.6272 72.8244H99.9189V74.1194H94.6272V72.8244ZM108.46 67.9388V66.6085H116.347V67.9388H113.169V76.8211H111.633V67.9388H108.46ZM124.612 76.8211H122.981L126.648 66.6085H128.42L132.087 76.8211H130.457L127.578 68.4627H127.496L124.612 76.8211ZM124.882 72.8244H130.18V74.1194H124.882V72.8244ZM159.464 69.9284H157.91C157.851 69.5987 157.739 69.3044 157.575 69.0513C157.416 68.7982 157.216 68.5863 156.98 68.4097C156.745 68.2331 156.48 68.1036 156.191 68.0095C155.903 67.9212 155.591 67.88 155.267 67.88C154.679 67.88 154.155 68.0271 153.69 68.3214C153.231 68.6157 152.866 69.0513 152.595 69.6223C152.33 70.1932 152.201 70.8878 152.201 71.7119C152.201 72.5477 152.33 73.2482 152.595 73.8192C152.866 74.3901 153.231 74.8198 153.696 75.1141C154.161 75.4085 154.684 75.5497 155.261 75.5497C155.585 75.5497 155.891 75.5085 156.18 75.4202C156.468 75.3319 156.733 75.2024 156.968 75.0317C157.204 74.8551 157.404 74.6432 157.569 74.396C157.734 74.1429 157.845 73.8545 157.91 73.5307L159.464 73.5366C159.382 74.037 159.217 74.4961 158.981 74.9199C158.746 75.3378 158.44 75.7028 158.069 76.0088C157.698 76.309 157.28 76.5445 156.804 76.7093C156.333 76.8741 155.815 76.9565 155.255 76.9565C154.373 76.9565 153.584 76.7505 152.895 76.3326C152.206 75.9088 151.659 75.3025 151.265 74.5196C150.87 73.7368 150.67 72.8008 150.67 71.7119C150.67 70.6229 150.87 69.687 151.27 68.91C151.665 68.1272 152.212 67.5209 152.901 67.103C153.59 66.685 154.373 66.4731 155.255 66.4731C155.791 66.4731 156.297 66.5497 156.768 66.7027C157.239 66.8557 157.657 67.0853 158.034 67.3855C158.41 67.6798 158.722 68.0389 158.964 68.4686C159.211 68.8983 159.376 69.3809 159.464 69.9284ZM168.17 76.8211V66.6085H174.556V67.9388H169.706V71.0468H174.221V72.3653H169.706V75.4909H174.615V76.8211H168.17ZM191.697 66.6085V76.8211H190.284L185.105 69.3339H185.01V76.8211H183.474V66.6085H184.899L190.084 74.1076H190.179V66.6085H191.697ZM200.303 67.9388V66.6085H208.19V67.9388H205.012V76.8211H203.481V67.9388H200.303ZM216.802 76.8211V66.6085H223.189V67.9388H218.338V71.0468H222.853V72.3653H218.338V75.4909H223.247V76.8211H216.802ZM232.106 76.8211V66.6085H235.738C236.527 66.6085 237.18 66.7498 237.704 67.0206C238.228 67.2913 238.616 67.6681 238.875 68.1507C239.134 68.6275 239.264 69.1808 239.264 69.8106C239.264 70.4346 239.134 70.9879 238.875 71.4588C238.616 71.9356 238.222 72.3005 237.698 72.5595C237.18 72.8244 236.521 72.9539 235.732 72.9539H232.983V71.6295H235.597C236.091 71.6295 236.497 71.5589 236.809 71.4176C237.121 71.2704 237.357 71.0644 237.498 70.7936C237.645 70.5229 237.716 70.1932 237.716 69.8106C237.716 69.428 237.645 69.0925 237.492 68.81C237.351 68.5274 237.115 68.3097 236.803 68.1625C236.491 68.0095 236.079 67.9329 235.573 67.9329H233.642V76.8211H232.106ZM237.139 72.2122L239.652 76.8211H237.904L235.438 72.2122H237.139Z" fill="white"/>
<path d="M29.1958 72.5185H70.0639" stroke="white" stroke-width="1.05161" stroke-linecap="round"/>
<path d="M246.369 72.5185H287.231" stroke="white" stroke-width="1.05161" stroke-linecap="round"/>
</svg>
